# xmcd
#
# Track frame offsets: 
#        150
#        29570
#        56459
#        98100
#        120447
#        163794
#        193135
#
# Disc length: 3250 seconds
#
# Revision: 0
# Processed by: cddbd v1.4PL0 Copyright (c) Steve Scherf et al.
# Submitted via: ExactAudioCopy v0.90b4
#
DISCID=590cb007
DTITLE=Van Morrison - North Wales Theatre 2000, disc 2
DYEAR=2000
DGENRE=Celtic
TTITLE0=Fast Train
TTITLE1=Stand By Me
TTITLE2=In The Afternoon > Joe Turner Sings > Don't You Make Me High >
TTITLE2=Sex Machine
TTITLE3=It's All Over Now, Baby Blue
TTITLE4=It's All In The Game > You Know What They're Writing About > M
TTITLE4=ake It Real One More Time
TTITLE5=The Healing Game
TTITLE6=See Me Through > Soldier Of Fortune > Thank You (Falletinme Be
TTITLE6=Mice Elf Again)
EXTD=
EXTT0=
EXTT1=
EXTT2=
EXTT3=
EXTT4=
EXTT5=
EXTT6=
PLAYORDER=
